<svg xmlns="http://www.w3.org/2000/svg" width="25.421" height="14.281" viewBox="0 0 25.421 14.281">
  <path id="Path_88" data-name="Path 88" d="M762.48,3962.829H742.956V3960.9h-5.9v14.281h5.9v-7.658H762.48Zm-.763,2.228-.938,1.7h-1.762l1.746-3.165h.954Zm-14.118-1.464h1.762l-1.746,3.165h-1.762Zm-2.617,3.165H743.22l1.746-3.165h1.762Zm5.25-3.165h1.762l-1.746,3.165h-1.762Zm2.633,0h1.762l-1.746,3.165h-1.762Zm2.633,0h1.762l-1.746,3.165h-1.762Zm2.633,0h1.762l-1.745,3.165h-1.762Zm-14.036,0-1.139,2.064v-2.064Zm-1.9,10.823h-4.37v-12.754h4.37v12.754Zm19.457-7.658.067-.121v.121Z" transform="translate(-737.059 -3960.898)" fill="#fff"/>
</svg>
