<svg id="Group_22" data-name="Group 22" xmlns="http://www.w3.org/2000/svg" width="24.367" height="22.961" viewBox="0 0 24.367 22.961">
  <path id="Path_95" data-name="Path 95" d="M761.158,4300.542V4288.97a.469.469,0,0,0-.468-.469h-2.812v-2.342a.468.468,0,0,0-.469-.469h-3.28a.468.468,0,0,0-.469.469v2.342H745.7v-2.342a.468.468,0,0,0-.469-.469h-3.28a.468.468,0,0,0-.469.469v2.342H738.2a.469.469,0,0,0-.468.469v18.275a.469.469,0,0,0,.468.469h15.79a5.147,5.147,0,0,0,7.171-7.172m-6.56-13.915h2.343v3.749H754.6Zm-12.183,0h2.343v3.749h-2.343Zm-3.749,2.811h2.812v1.406a.469.469,0,0,0,.469.469h3.28a.469.469,0,0,0,.469-.469v-1.406h7.965v1.406a.469.469,0,0,0,.469.469h3.28a.469.469,0,0,0,.469-.469v-1.406h2.343v10.085a5.152,5.152,0,0,0-7.253,7.253h-14.3Zm18.275,18.275a4.218,4.218,0,1,1,4.217-4.217,4.221,4.221,0,0,1-4.217,4.217" transform="translate(-737.729 -4285.69)" fill="#fff"/>
  <path id="Path_96" data-name="Path 96" d="M743.082,4302.461h2.812a.469.469,0,0,0,.469-.469v-2.812a.468.468,0,0,0-.469-.469h-2.812a.468.468,0,0,0-.469.469v2.812a.469.469,0,0,0,.469.469m.469-2.812h1.874v1.875H743.55Z" transform="translate(-739.801 -4291.215)" fill="#fff"/>
  <path id="Path_97" data-name="Path 97" d="M754.031,4298.712H751.22a.469.469,0,0,0-.469.469v2.812a.469.469,0,0,0,.469.469h2.812a.469.469,0,0,0,.469-.469v-2.812a.468.468,0,0,0-.469-.469m-.469,2.812h-1.874v-1.875h1.874Z" transform="translate(-743.254 -4291.215)" fill="#fff"/>
  <path id="Path_98" data-name="Path 98" d="M762.64,4301.993v-2.812a.468.468,0,0,0-.469-.469H759.36a.468.468,0,0,0-.469.469v2.812a.469.469,0,0,0,.469.469h2.812a.469.469,0,0,0,.469-.469m-.937-.468h-1.875v-1.875H761.7Z" transform="translate(-746.708 -4291.215)" fill="#fff"/>
  <path id="Path_99" data-name="Path 99" d="M743.082,4311.416h2.812a.469.469,0,0,0,.469-.469v-2.811a.469.469,0,0,0-.469-.469h-2.812a.469.469,0,0,0-.469.469v2.811a.469.469,0,0,0,.469.469m.469-2.812h1.874v1.875H743.55Z" transform="translate(-739.801 -4295.015)" fill="#fff"/>
  <path id="Path_100" data-name="Path 100" d="M754.031,4307.666H751.22a.47.47,0,0,0-.469.469v2.811a.469.469,0,0,0,.469.469h2.812a.469.469,0,0,0,.469-.469v-2.811a.469.469,0,0,0-.469-.469m-.469,2.813h-1.874V4308.6h1.874Z" transform="translate(-743.254 -4295.015)" fill="#fff"/>
  <path id="Path_101" data-name="Path 101" d="M767.5,4302.461h2.812a.468.468,0,0,0,.468-.469v-2.812a.468.468,0,0,0-.468-.469H767.5a.468.468,0,0,0-.469.469v2.812a.469.469,0,0,0,.469.469m.468-2.812h1.875v1.875h-1.875Z" transform="translate(-750.162 -4291.215)" fill="#fff"/>
  <path id="Path_102" data-name="Path 102" d="M750.11,4317.434h-7.028a.469.469,0,0,0,0,.938h7.028a.469.469,0,0,0,0-.937" transform="translate(-739.801 -4299.159)" fill="#fff"/>
  <path id="Path_103" data-name="Path 103" d="M771.125,4312.73l-2.954,3.8-1.968-1.969a.469.469,0,0,0-.663.663l2.343,2.343a.468.468,0,0,0,.331.137h.029a.471.471,0,0,0,.341-.18l3.28-4.218a.469.469,0,1,0-.739-.576" transform="translate(-749.471 -4297.086)" fill="#fff"/>
</svg>
