<svg id="Group_11" data-name="Group 11" xmlns="http://www.w3.org/2000/svg" width="25.415" height="25.414" viewBox="0 0 25.415 25.414">
  <path id="Path_78" data-name="Path 78" d="M764.248,3882.791l.727-.727a1.174,1.174,0,0,0-.831-2,1.162,1.162,0,0,0-.652.2l-.153-.515.787-.788a1.174,1.174,0,0,0-1.546-1.76l-.932-3.131c.372-.359.729-.708,1.065-1.044a12.4,12.4,0,0,0,2.218-2.888c.78-1.511.454-2.318.043-2.729s-1.219-.738-2.728.043a12.358,12.358,0,0,0-2.888,2.218c-.336.336-.686.693-1.044,1.066l-3.132-.933a1.173,1.173,0,0,0-1.758-1.546l-.788.788-.515-.154a1.174,1.174,0,0,0-1.807-1.481l-.728.727-3.705-1.1a.377.377,0,0,0-.372.095l-.953.954a.378.378,0,0,0,.043.567l9.349,6.844c-2.107,2.375-4.138,4.756-5.572,6.457l-2.75-1.059a.377.377,0,0,0-.4.085l-1.13,1.13a.375.375,0,0,0,0,.53l5.652,5.652a.377.377,0,0,0,.529,0l1.131-1.13a.373.373,0,0,0,.085-.4l-1.057-2.75c1.7-1.434,4.079-3.464,6.456-5.572l.742,1.015a.375.375,0,0,0,.605-.443l-.785-1.072c1.243-1.109,2.47-2.229,3.584-3.284l3.53,11.85-.487.487-4.852-6.628a.375.375,0,1,0-.605.442l5.11,6.981a.379.379,0,0,0,.567.043l.954-.954a.374.374,0,0,0,.094-.373Zm-10.3-14.008a.427.427,0,0,1,.6,0,.423.423,0,0,1,0,.6l-.176.176-.926-.276Zm-3.108-.849a.425.425,0,0,1,.6.6l-.116.116-.925-.276Zm-5.449.362.487-.486,11.851,3.53c-1.055,1.114-2.174,2.341-3.284,3.584Zm.189,13.375,2.282.877c-.572.682-1.011,1.208-1.27,1.521l-1.705-1.705Zm1.544,2.93c1.306-1.576,8.211-9.858,12.759-14.407a11.832,11.832,0,0,1,2.7-2.083c.611-.315,1.43-.6,1.855-.178s.138,1.244-.178,1.855a11.785,11.785,0,0,1-2.083,2.7c-4.548,4.548-12.831,11.453-14.406,12.758Zm3.579,2.192-.694.693-1.7-1.7c.312-.259.84-.7,1.521-1.27Zm13.136-5.859a.425.425,0,0,1,.6.6l-.441.44-.275-.925Zm-.847-3.109a.425.425,0,0,1,.6.6l-.5.5-.275-.926Z" transform="translate(-739.991 -3866.973)" fill="#fff"/>
  <path id="Path_79" data-name="Path 79" d="M773.675,3904.374l-3.2,3.2a.375.375,0,0,0,.53.53l3.2-3.2a.375.375,0,0,0-.53-.53" transform="translate(-751.184 -3882.795)" fill="#fff"/>
  <path id="Path_80" data-name="Path 80" d="M772.312,3902.127a.374.374,0,0,0-.53-.529l-2,2a.375.375,0,0,0,.53.53Z" transform="translate(-750.89 -3881.618)" fill="#fff"/>
  <path id="Path_81" data-name="Path 81" d="M770.671,3898.656a.375.375,0,0,0-.529-.53l-1.4,1.4a.375.375,0,0,0,.531.531Z" transform="translate(-750.448 -3880.145)" fill="#fff"/>
  <path id="Path_82" data-name="Path 82" d="M740.882,3871.4a.375.375,0,0,0-.53,0l-3.2,3.2a.374.374,0,0,0,0,.53.378.378,0,0,0,.53,0l3.2-3.2a.373.373,0,0,0,0-.529" transform="translate(-737.045 -3868.805)" fill="#fff"/>
  <path id="Path_83" data-name="Path 83" d="M744.543,3874.176a.374.374,0,0,0-.529,0l-2,2a.375.375,0,1,0,.53.53l2-2a.374.374,0,0,0,0-.53" transform="translate(-739.108 -3869.983)" fill="#fff"/>
  <path id="Path_84" data-name="Path 84" d="M746.527,3878.187a.378.378,0,0,0,.53,0l1.4-1.4a.375.375,0,0,0-.53-.53l-1.4,1.4a.373.373,0,0,0,0,.529" transform="translate(-741.021 -3870.867)" fill="#fff"/>
</svg>
