<svg id="Group_24" data-name="Group 24" xmlns="http://www.w3.org/2000/svg" width="25.055" height="19.272" viewBox="0 0 25.055 19.272">
  <path id="Path_105" data-name="Path 105" d="M769.5,4488.395l-.3-.141a7.852,7.852,0,0,0-6.636,0l-.282.132-.248.093a8.528,8.528,0,0,1-6.188-.036l-.157-.061a.4.4,0,1,0-.294.746l.157.061a9.342,9.342,0,0,0,6.767.041l.261-.1.027-.012.295-.137a7.049,7.049,0,0,1,5.96,0l.3.14a.4.4,0,1,0,.338-.728" transform="translate(-744.679 -4470.574)" fill="#fff"/>
  <path id="Path_106" data-name="Path 106" d="M746.706,4474.154h-1.248l-1.136-1.967a.418.418,0,0,0,.006-.065v-5.264l7.086-7.375v2.418l-2.71,2.644v0a.392.392,0,0,0-.045.053l-.006.008a.408.408,0,0,0-.037.068.394.394,0,0,0-.023.075l0,.014a.424.424,0,0,0-.006.065h0v4.566a5.768,5.768,0,0,1-.733.032.4.4,0,0,0-.4.53l1.9,5.6a.4.4,0,0,0,.38.272.374.374,0,0,0,.129-.022.4.4,0,0,0,.251-.508l-1.724-5.081a11.873,11.873,0,0,0,5.938-2.134v6.734a.4.4,0,1,0,.8,0v-6.734a11.872,11.872,0,0,0,5.938,2.134l-1.35,3.979a.4.4,0,0,0,.759.258l1.527-4.5a.4.4,0,0,0-.4-.53,6.175,6.175,0,0,1-.814-.04v-4.558a.4.4,0,0,0-.4-.4h-5.5l-2.67-2.533v-3.412c0-.007,0-.014,0-.021a.314.314,0,0,0,0-.046.376.376,0,0,0-.02-.071c0-.011-.008-.021-.013-.033l-.019-.035c-.006-.01-.013-.02-.02-.029l-.008-.013-.017-.018-.025-.025a.181.181,0,0,0-.032-.025.26.26,0,0,0-.027-.021l-.037-.019-.029-.014a.339.339,0,0,0-.045-.014l-.026-.008a.487.487,0,0,0-.076-.007H751.8a.356.356,0,0,0-.064.006l-.027.008a.443.443,0,0,0-.044.013l-.032.015c-.008,0-.017.007-.025.012l-7.128,4.2-1.9-3.289a.4.4,0,0,0-.694,0l-2.1,3.637a.4.4,0,0,0,.326.6v8.834a.411.411,0,0,0,.015.1l-1.113,1.928H737.37a.4.4,0,0,0-.4.4v2.4a.4.4,0,0,0,.4.4h6.351v-.8h-5.95v-1.6h8.534v1.6h-1.078v.8h1.479a.4.4,0,0,0,.4-.4v-2.4a.4.4,0,0,0-.4-.4m-4.066-4.882v-5.982h.887v7.519Zm9.18-6.645,1.9,1.8h-3.751Zm-2.433,2.607h4.858v1.661h-4.858Zm0,2.463h4.075a11.459,11.459,0,0,1-4.075,1.59Zm6.606,0h3.994v1.576a11.457,11.457,0,0,1-3.994-1.576m3.994-.8h-4.858v-1.661h4.858Zm-15.657-1.2v-2.41h.014l.025,0a.284.284,0,0,0,.036,0,.471.471,0,0,0,.054-.012l.017-.005a.462.462,0,0,0,.067-.032h0a.234.234,0,0,0,.028-.017l4.934-2.9Zm-2.09-5.646,1.405,2.435h-2.811Zm-1.319,3.236h.918v5.982l-.918,1.59Zm1.319,6.892,2.293,3.972h-4.587Z" transform="translate(-736.969 -4458.086)" fill="#fff"/>
</svg>
