<svg id="Group_13" data-name="Group 13" xmlns="http://www.w3.org/2000/svg" width="24.606" height="24.534" viewBox="0 0 24.606 24.534">
  <rect id="Rectangle_28" data-name="Rectangle 28" width="0.941" height="11.796" transform="translate(2.608 10.941)" fill="#fff"/>
  <rect id="Rectangle_29" data-name="Rectangle 29" width="0.941" height="11.796" transform="translate(6.298 10.941)" fill="#fff"/>
  <rect id="Rectangle_30" data-name="Rectangle 30" width="0.941" height="11.796" transform="translate(9.987 10.941)" fill="#fff"/>
  <rect id="Rectangle_31" data-name="Rectangle 31" width="0.941" height="11.796" transform="translate(13.678 10.941)" fill="#fff"/>
  <rect id="Rectangle_32" data-name="Rectangle 32" width="0.941" height="11.796" transform="translate(17.367 10.941)" fill="#fff"/>
  <rect id="Rectangle_33" data-name="Rectangle 33" width="0.941" height="11.796" transform="translate(21.058 10.941)" fill="#fff"/>
  <path id="Path_89" data-name="Path 89" d="M762.373,4043.037v-.006c0-.009,0-.019,0-.028a.456.456,0,0,0-.006-.061c0-.015-.008-.028-.012-.042s-.008-.03-.014-.044-.014-.028-.021-.042-.013-.026-.021-.038a.369.369,0,0,0-.028-.037.365.365,0,0,0-.029-.035.342.342,0,0,0-.035-.032c-.011-.009-.022-.019-.034-.027a.385.385,0,0,0-.052-.029c-.009,0-.016-.011-.025-.015l-.006,0h0l-10.645-4.7a1.777,1.777,0,0,0-.9-2.846v-1.091a.47.47,0,1,0-.941,0v1.5a.47.47,0,0,0,.47.471.834.834,0,0,1,.427,1.552l-.237-.105a.472.472,0,0,0-.38,0l-.239.106a.836.836,0,0,1-.341-.392.471.471,0,0,0-.867.367,1.771,1.771,0,0,0,.268.44l-10.645,4.7h0l-.007,0-.027.016a.55.55,0,0,0-.051.029.356.356,0,0,0-.034.028.271.271,0,0,0-.035.031.347.347,0,0,0-.029.035.359.359,0,0,0-.028.037.255.255,0,0,0-.021.037c-.008.015-.016.028-.021.043a.359.359,0,0,0-.013.043.347.347,0,0,0-.013.043.391.391,0,0,0-.006.059c0,.01,0,.02,0,.03v.007h0v14.512a.469.469,0,0,0,.47.469H761.9a.469.469,0,0,0,.47-.469v-14.514Zm-12.3-4.5a1.782,1.782,0,0,0,.4-.046l9.206,4.066H740.466l9.211-4.068a1.78,1.78,0,0,0,.393.048m11.362,18.541H738.707V4043.5h22.725Z" transform="translate(-737.767 -4033.486)" fill="#fff"/>
</svg>
