<svg id="Group_23" data-name="Group 23" xmlns="http://www.w3.org/2000/svg" width="24.585" height="23.59" viewBox="0 0 24.585 23.59">
  <path id="Path_104" data-name="Path 104" d="M761.8,4387.9H760.33v-11.329h1.011a.554.554,0,0,0,.576-.542v-2.588a.571.571,0,0,0-.348-.521l-11.139-4.77a.568.568,0,0,0-.447,0l-11.127,4.77a.557.557,0,0,0-.334.521v2.588a.529.529,0,0,0,.515.542.213.213,0,0,0,.031,0h1.04V4387.9h-1.751a.566.566,0,0,0-.572.559h0v2.695a.551.551,0,0,0,.572.542H761.8a.551.551,0,0,0,.572-.542v-2.695a.566.566,0,0,0-.571-.56m-22.144-12.461v-1.623l10.565-4.527,10.565,4.527v1.623ZM759.2,4387.9h-2.776v-11.329H759.2Zm-3.909,0H752.57v-11.329h2.719Zm-3.852,0h-2.719v-11.329h2.719Zm-3.852,0h-2.719v-11.329h2.719Zm-3.852,0H741.24v-11.329h2.492Zm17.5,2.663H738.917v-1.529h22.319Z" transform="translate(-737.785 -4368.103)" fill="#fff"/>
</svg>
