<svg id="Group_21" data-name="Group 21" xmlns="http://www.w3.org/2000/svg" width="23.554" height="24.067" viewBox="0 0 23.554 24.067">
  <path id="Path_92" data-name="Path 92" d="M739.653,4210.913v10.817a1.67,1.67,0,0,0,1.682,1.652h1.275a2.638,2.638,0,0,0,5.223,0h7.794a2.638,2.638,0,0,0,5.223,0h.675a1.67,1.67,0,0,0,1.682-1.652v-4.6s-.008-.005-.008-.008-.008-.013-.008-.02l0-.017,0-.019,0-.018,0-.018-.005-.017-.006-.017-.007-.017-.008-.017-.009-.015-.009-.016-.01-.016-.01-.014-.013-.015-.006-.008-3.336-3.625a1.661,1.661,0,0,0-1.228-.531h-3.758v-1.806a1.66,1.66,0,0,0-1.681-1.642h-.136a5.767,5.767,0,0,0,.266-2.121,6.033,6.033,0,0,0-1.789-3.889,5.9,5.9,0,0,0-8.239,0,6.039,6.039,0,0,0-1.789,3.893,5.776,5.776,0,0,0,.266,2.12h-.336a1.661,1.661,0,0,0-1.682,1.642m18.585,14.008a1.9,1.9,0,1,1,1.9-1.9,1.9,1.9,0,0,1-1.9,1.9m-3.466-11.459h3.758a.913.913,0,0,1,.68.288l2.766,3h-7.2Zm0,4.032h7.692v4.236a.926.926,0,0,1-.939.91h-.675a2.638,2.638,0,0,0-5.223,0h-.854Zm-9.552,7.427a1.9,1.9,0,1,1,1.9-1.9,1.9,1.9,0,0,1-1.9,1.9m-3.075-17.732a5.274,5.274,0,0,1,1.568-3.4,5.157,5.157,0,0,1,7.2,0,5.274,5.274,0,0,1,1.568,3.4,4.894,4.894,0,0,1-.308,2.051,5.4,5.4,0,0,1-1.189,1.843l-3.67,3.833-3.67-3.833a5.39,5.39,0,0,1-1.189-1.843,4.9,4.9,0,0,1-.308-2.051m-.176,2.825a7.014,7.014,0,0,0,1.137,1.6l3.938,4.1a.368.368,0,0,0,.268.111.374.374,0,0,0,.268-.116l3.938-4.1a7.028,7.028,0,0,0,1.136-1.6h.435a.917.917,0,0,1,.938.9v11.727h-6.2a2.638,2.638,0,0,0-5.223,0h-1.275a.927.927,0,0,1-.939-.91v-10.817a.918.918,0,0,1,.939-.9Z" transform="translate(-739.653 -4201.582)" fill="#fff"/>
  <path id="Path_93" data-name="Path 93" d="M750.422,4211.744a.371.371,0,0,0,.517.047l2.287-1.86a.371.371,0,1,0-.466-.578h0l-2.006,1.632-.559-.655a.371.371,0,1,0-.569.477l0,.005Z" transform="translate(-743.847 -4204.844)" fill="#fff"/>
  <path id="Path_94" data-name="Path 94" d="M750.013,4212.221a4.019,4.019,0,1,0-4-4.019,4.012,4.012,0,0,0,4,4.019m0-7.295a3.276,3.276,0,1,1-3.253,3.276,3.269,3.269,0,0,1,3.253-3.276" transform="translate(-742.353 -4202.686)" fill="#fff"/>
</svg>
