<svg id="Group_10" data-name="Group 10" xmlns="http://www.w3.org/2000/svg" width="26.762" height="17.103" viewBox="0 0 26.762 17.103">
  <path id="Path_69" data-name="Path 69" d="M762.656,3719.077h-.769v-12.063H736.642v12.063h-.747v3.1h2.686a20.179,20.179,0,0,1,5.061,1.941,1.96,1.96,0,0,0,1.959-1.941h7.329a20.208,20.208,0,0,1,5.061,1.941,1.961,1.961,0,0,0,1.959-1.941h2.708Zm-25.2-11.247h23.615v11.247H737.458Zm3.082,15.471a1.143,1.143,0,1,1,1.143-1.143,1.144,1.144,0,0,1-1.143,1.143m3.1,0a1.143,1.143,0,1,1,1.143-1.143,1.144,1.144,0,0,1-1.143,1.143m11.246,0a1.143,1.143,0,1,1,1.144-1.143,1.144,1.144,0,0,1-1.144,1.143m3.1,0a1.143,1.143,0,1,1,1.143-1.143,1.144,1.144,0,0,1-1.143,1.143m1.789-1.94a7.545,7.545,0,0,1-4.891-1.162,1.962,1.962,0,0,0-1.789,1.162h-7.668a7.546,7.546,0,0,1-4.891-1.162,1.963,1.963,0,0,0-1.789,1.162h-2.04v-.327h1.469v-.816h-1.469v-.326H761.84v.326h-.707v.816h.707v.327Z" transform="translate(-735.895 -3707.014)" fill="#fff"/>
  <path id="Path_70" data-name="Path 70" d="M741.186,3719.479H742v-8.92h.762v-.816h-1.577Z" transform="translate(-738.14 -3708.172)" fill="#fff"/>
  <path id="Path_71" data-name="Path 71" d="M745.909,3719.479h.816v-8.92h.762v-.816h-1.578Z" transform="translate(-740.144 -3708.172)" fill="#fff"/>
  <path id="Path_72" data-name="Path 72" d="M750.728,3719.479h.816v-8.92h.707v-.816h-1.523Z" transform="translate(-742.189 -3708.172)" fill="#fff"/>
  <path id="Path_73" data-name="Path 73" d="M755.452,3719.479h.816v-8.92h.707v-.816h-1.523Z" transform="translate(-744.193 -3708.172)" fill="#fff"/>
  <path id="Path_74" data-name="Path 74" d="M760.082,3719.479h.816v-8.92h.762v-.816h-1.577Z" transform="translate(-746.157 -3708.172)" fill="#fff"/>
  <path id="Path_75" data-name="Path 75" d="M764.806,3719.479h.816v-8.92h.762v-.816h-1.577Z" transform="translate(-748.162 -3708.172)" fill="#fff"/>
  <path id="Path_76" data-name="Path 76" d="M769.625,3719.479h.816v-8.92h.653v-.816h-1.469Z" transform="translate(-750.206 -3708.172)" fill="#fff"/>
  <path id="Path_77" data-name="Path 77" d="M774.16,3709.743v9.736h.816v-8.92h.816v-.816Z" transform="translate(-752.131 -3708.172)" fill="#fff"/>
  <rect id="Rectangle_19" data-name="Rectangle 19" width="0.762" height="0.816" transform="translate(21.648 14.736)" fill="#fff"/>
  <rect id="Rectangle_20" data-name="Rectangle 20" width="1.226" height="0.796" transform="translate(12.461 13.204)" fill="#fff"/>
  <rect id="Rectangle_21" data-name="Rectangle 21" width="1.226" height="0.796" transform="translate(10.864 13.204)" fill="#fff"/>
  <rect id="Rectangle_22" data-name="Rectangle 22" width="1.226" height="0.796" transform="translate(14.169 13.204)" fill="#fff"/>
  <rect id="Rectangle_23" data-name="Rectangle 23" width="0.762" height="0.816" transform="translate(18.613 14.736)" fill="#fff"/>
  <rect id="Rectangle_24" data-name="Rectangle 24" width="0.762" height="0.816" transform="translate(7.147 14.736)" fill="#fff"/>
  <rect id="Rectangle_25" data-name="Rectangle 25" width="0.762" height="0.816" transform="translate(4.111 14.736)" fill="#fff"/>
</svg>
