<svg id="Group_25" data-name="Group 25" xmlns="http://www.w3.org/2000/svg" width="25.885" height="13.976" viewBox="0 0 25.885 13.976">
  <path id="Path_107" data-name="Path 107" d="M758.8,4560.97l-1.842-1.064a.343.343,0,0,0-.515.3v.72h-7.1a1.946,1.946,0,0,0-3.831,0h-1.1v-2.03a.344.344,0,1,0-.688,0v2.374a.344.344,0,0,0,.344.344h1.443a1.946,1.946,0,0,0,3.831,0h7.1v.72a.344.344,0,0,0,.515.3l1.842-1.063a.347.347,0,0,0,.172-.3.342.342,0,0,0-.172-.3m-11.372,1.558a1.26,1.26,0,1,1,1.26-1.26,1.261,1.261,0,0,1-1.26,1.26m9.7-.792v-.936l.81.468Z" transform="translate(-739.453 -4549.24)" fill="#fff"/>
  <path id="Path_108" data-name="Path 108" d="M763.768,4549.083l-1.511-3.115a.345.345,0,0,0-.309-.194H758.1v-3.051a.345.345,0,0,0-.344-.344H745.521a1.794,1.794,0,0,0-1.792,1.792v.8a.344.344,0,0,0,.688,0v-.8a1.105,1.105,0,0,1,1.1-1.1H757.41v8.965a.344.344,0,0,0,.688,0v-5.569h3.634l1.5,3.1a.344.344,0,0,0,.31.194,1.1,1.1,0,0,1,1.1,1.1v3.2h-1.406a1.948,1.948,0,1,0,0,.686h1.751a.344.344,0,0,0,.344-.344v-3.545a1.794,1.794,0,0,0-1.569-1.778m-2.44,6.583a1.26,1.26,0,1,1,1.26-1.259,1.261,1.261,0,0,1-1.26,1.259" transform="translate(-739.453 -4542.379)" fill="#fff"/>
  <path id="Path_109" data-name="Path 109" d="M773.34,4553.217v-.688h-2.28v-1.686h-.688v2.031a.344.344,0,0,0,.344.343Z" transform="translate(-750.757 -4545.97)" fill="#fff"/>
  <path id="Path_110" data-name="Path 110" d="M744.913,4548.964h9.977a.344.344,0,1,0,0-.688h-9.977a.344.344,0,0,0,0,.688" transform="translate(-739.809 -4544.881)" fill="#fff"/>
  <path id="Path_111" data-name="Path 111" d="M744.871,4552.7h4.195a.344.344,0,1,0,0-.688h-4.195a.344.344,0,0,0,0,.688" transform="translate(-739.791 -4546.465)" fill="#fff"/>
  <path id="Path_112" data-name="Path 112" d="M741.081,4552.009h-1.232a.344.344,0,1,0,0,.688h1.232a.344.344,0,1,0,0-.688" transform="translate(-737.661 -4546.465)" fill="#fff"/>
  <path id="Path_113" data-name="Path 113" d="M737.124,4552.009h-.48a.344.344,0,0,0,0,.688h.48a.344.344,0,0,0,0-.688" transform="translate(-736.301 -4546.465)" fill="#fff"/>
  <path id="Path_114" data-name="Path 114" d="M740.614,4548.964h.87a.344.344,0,1,0,0-.688h-.87a.344.344,0,0,0,0,.688" transform="translate(-737.985 -4544.881)" fill="#fff"/>
  <path id="Path_115" data-name="Path 115" d="M751.73,4556.137a.344.344,0,0,0-.344-.344h-8.1a.344.344,0,1,0,0,.688h8.1a.344.344,0,0,0,.344-.344" transform="translate(-739.117 -4548.07)" fill="#fff"/>
  <path id="Path_116" data-name="Path 116" d="M740.057,4555.793h-.592a.344.344,0,1,0,0,.688h.592a.344.344,0,1,0,0-.688" transform="translate(-737.497 -4548.07)" fill="#fff"/>
</svg>
