<svg id="Group_12" data-name="Group 12" xmlns="http://www.w3.org/2000/svg" width="23.474" height="25.81" viewBox="0 0 23.474 25.81">
  <path id="Path_85" data-name="Path 85" d="M739.459,3819.025a45.015,45.015,0,0,1,11.054,1.2,45.966,45.966,0,0,0,11.292,1.224.563.563,0,0,0,0-1.127,45.011,45.011,0,0,1-11.054-1.2,45.942,45.942,0,0,0-11.292-1.224.563.563,0,1,0,0,1.127" transform="translate(-738.895 -3797.843)" fill="#fff"/>
  <path id="Path_86" data-name="Path 86" d="M761.805,3824.151a45.034,45.034,0,0,1-11.054-1.2,45.967,45.967,0,0,0-11.292-1.224.563.563,0,0,0,0,1.127,45.012,45.012,0,0,1,11.054,1.2,45.984,45.984,0,0,0,11.292,1.224.563.563,0,1,0,0-1.127" transform="translate(-738.895 -3799.468)" fill="#fff"/>
  <path id="Path_87" data-name="Path 87" d="M747.295,3802.536a.566.566,0,0,0,.436.3,47.619,47.619,0,0,1,5.292.919c1.447.313,2.942.638,4.823.871a.569.569,0,0,0,.55-.265,31.255,31.255,0,0,0,1.8-3.333c1.429-3.146,1.72-8.3,1.732-8.522a.565.565,0,0,0-.441-.581l-1.287-.284v-4.292a.563.563,0,0,0-.563-.563h-1.268v-3.157a.563.563,0,0,0-.563-.563h-8.92a.563.563,0,0,0-.564.563v3.157h-1.268a.563.563,0,0,0-.564.563v4.3l-1.236.272a.565.565,0,0,0-.441.581c.012.218.3,5.377,1.733,8.522.218.48.47.989.751,1.512m13.471-9.62a26.776,26.776,0,0,1-1.6,7.641,29,29,0,0,1-1.543,2.9c-1.387-.186-2.569-.423-3.692-.664V3791.4Zm-11.32-8.728h7.793v2.593h-7.793Zm-1.831,3.72H759.07v3.479l-5.58-1.235a.569.569,0,0,0-.244,0l-5.631,1.246Zm5.189,3.5v11.146a46.867,46.867,0,0,0-4.654-.806c-.215-.41-.409-.809-.581-1.187a26.778,26.778,0,0,1-1.6-7.641Z" transform="translate(-741.405 -3783.062)" fill="#fff"/>
  <rect id="Rectangle_26" data-name="Rectangle 26" width="5.352" height="1.127" transform="translate(9.297 1.736)" fill="#fff"/>
  <rect id="Rectangle_27" data-name="Rectangle 27" width="8.638" height="1.127" transform="translate(7.654 5.539)" fill="#fff"/>
</svg>
