<svg id="Group_26" data-name="Group 26" xmlns="http://www.w3.org/2000/svg" width="20.032" height="25.562" viewBox="0 0 20.032 25.562">
  <path id="Path_117" data-name="Path 117" d="M760.9,4638.3c-.278.014-.557,0-.835,0-.041,0-.057-.01-.063-.053-.03-.207-.064-.413-.1-.619l-.166-1.076c-.054-.35-.109-.7-.162-1.048s-.108-.718-.163-1.077c-.059-.387-.121-.773-.18-1.16-.074-.479-.145-.958-.219-1.436-.06-.389-.122-.778-.182-1.168q-.1-.667-.2-1.336-.1-.636-.2-1.273c-.054-.352-.107-.7-.161-1.056s-.112-.708-.166-1.062c-.06-.389-.118-.779-.177-1.168s-.12-.778-.181-1.167c-.051-.329-.1-.657-.154-.984-.01-.062.005-.079.067-.078.41,0,.819,0,1.229,0h2.022a.423.423,0,0,0,.435-.412q.006-.868,0-1.736a.419.419,0,0,0-.411-.411H757.6a.291.291,0,0,0-.036,0c-.039,0-.058-.01-.054-.052s0-.066,0-.1q0-.976,0-1.95a.44.44,0,0,0-.273-.43.576.576,0,0,0-.336,0q-.828.161-1.656.32l-1.956.379-1.585.308-1.956.377-1.662.324-1.893.366-1.293.249c-.351.068-.7.133-1.054.206a.452.452,0,0,0-.4.5q0,.8,0,1.607a.426.426,0,0,0,.367.448c.055.011.06.033.06.079q0,1.414,0,2.829c0,.056-.011.074-.07.073-.25,0-.5,0-.75,0a.439.439,0,0,0-.457.458c.009.393,0,.786,0,1.179,0,.061-.013.081-.078.08-.264-.006-.528,0-.792-.007a.434.434,0,0,0-.415.47q0,1.657,0,3.314a.434.434,0,0,0,.477.479c1.674,0,3.348,0,5.022,0a.458.458,0,0,0,.477-.475c-.007-1.1,0-2.2,0-3.3,0-.03,0-.062,0-.092a.423.423,0,0,0-.412-.4c-.262.007-.523,0-.785.006-.065,0-.078-.02-.078-.081,0-.386,0-.771,0-1.156a.441.441,0,0,0-.475-.479h-.714c-.093,0-.093,0-.093-.089q0-1.392,0-2.786c0-.108-.011-.1.1-.1h6.486c.455,0,.91,0,1.364,0,.057,0,.072.011.062.072-.053.323-.1.646-.151.97q-.1.623-.19,1.246c-.06.391-.121.782-.181,1.174-.054.352-.107.7-.161,1.055q-.091.587-.182,1.175c-.054.351-.107.7-.161,1.055q-.091.587-.182,1.175c-.054.351-.107.7-.161,1.055-.06.389-.122.778-.181,1.167q-.081.531-.162,1.062-.09.584-.181,1.167c-.055.354-.108.708-.162,1.062-.06.39-.12.778-.181,1.167-.056.361-.115.722-.166,1.083-.009.066-.037.073-.092.073-.281,0-.562,0-.843,0a.413.413,0,0,0-.413.415q0,1.926,0,3.851a.383.383,0,0,0,.036.166.429.429,0,0,0,.423.257H760.88a.43.43,0,0,0,.464-.463V4640.8c0-.686,0-1.372,0-2.058A.44.44,0,0,0,760.9,4638.3Zm-2.912-7.034c.055-.024.067-.019.077.043.062.418.13.835.194,1.252s.126.844.191,1.266.131.83.195,1.245c.069.453.136.905.206,1.358.025.167.053.333.08.5,0,.025,0,.051.006.089l-6.4-3.367c.138-.062.264-.119.391-.174l2.927-1.28Q756.92,4631.735,757.984,4631.269Zm-.141-1.371-4.486-2.242,3.845-1.923Zm-3.539-5.667,2.091.872.075.033-3.522,1.762c.02-.135.037-.258.056-.381q.083-.542.168-1.083c.07-.453.14-.9.21-1.358.009-.054.016-.108.022-.162s.021-.052.065-.034C753.747,4624,754.026,4624.114,754.3,4624.23Zm-.743-1.345c.018-.09.031-.182.043-.274.007-.046.023-.065.077-.065q1.485,0,2.97,0c.041,0,.062.006.069.055.043.291.091.581.136.871.048.311.094.623.143.95l-.646-.27-2.691-1.121a.244.244,0,0,0-.026-.011C753.558,4623,753.547,4622.956,753.562,4622.885Zm-4.731-2.994,1.3-.25,1.963-.38,1.508-.292,1.963-.378,1-.195c.093-.018.094-.02.093.077q0,.667-.009,1.334v.05c0,.131,0,.131-.132.131H748.4l0-.009C748.544,4619.95,748.688,4619.919,748.831,4619.892Zm-2.484,8.2c.063,0,.084.014.083.082q0,1.192,0,2.384c0,.067-.018.082-.083.082q-2.046,0-4.091,0c-.062,0-.085-.011-.085-.081q0-1.192,0-2.385c0-.067.02-.083.083-.083.683,0,1.366,0,2.05,0S745.666,4628.089,746.347,4628.087Zm-1.259-1.71c.055,0,.068.021.067.072,0,.235,0,.471,0,.707,0,.055-.017.068-.07.068-.261,0-.523,0-.785,0h-.778c-.048,0-.066-.011-.066-.062q0-.361,0-.721c0-.047.013-.062.06-.062Q744.3,4626.381,745.088,4626.377Zm7.3-4.687H744.4c-.107,0-.1.012-.1-.1,0-.226,0-.453,0-.679,0-.057.017-.078.073-.07a.213.213,0,0,0,.043,0h15.956c.021,0,.043,0,.064,0,.037,0,.05.012.05.05,0,.247,0,.495,0,.742,0,.042-.014.057-.054.052a.556.556,0,0,0-.057,0Zm-.329,10.958c.056-.36.112-.717.168-1.076q.1-.64.2-1.28c.069-.451.136-.9.2-1.351l.088-.577c.006-.044.021-.055.067-.032q2.256,1.13,4.514,2.257c.012.006.024.015.041.024l-5.321,2.329C752.035,4632.835,752.047,4632.74,752.061,4632.647Zm-.854,5.548c.052-.326.1-.651.151-.977.055-.354.111-.708.165-1.062.05-.326.1-.652.149-.979.047-.307.1-.613.144-.929l.737.386,1.547.815,3.233,1.7,1.686.886a.246.246,0,0,1,.109.239.03.03,0,0,1-.035.026h-7.8C751.189,4638.3,751.19,4638.3,751.207,4638.195Zm9.2,3.94q-5.238,0-10.477,0c-.07,0-.086-.018-.086-.086q0-1.4,0-2.8c0-.071.016-.091.089-.091q2.617,0,5.235,0h5.228c.092,0,.092,0,.092.091q0,1.4,0,2.8C760.488,4642.119,760.471,4642.135,760.4,4642.135Z" transform="translate(-741.314 -4617.431)" fill="#fff"/>
</svg>
