<svg id="Group_27" data-name="Group 27" xmlns="http://www.w3.org/2000/svg" width="25.212" height="16.052" viewBox="0 0 25.212 16.052">
  <path id="Path_118" data-name="Path 118" d="M744.741,4729.7a.739.739,0,1,0,.739.738.739.739,0,0,0-.739-.738" transform="translate(-740.309 -4716.604)" fill="#fff"/>
  <path id="Path_119" data-name="Path 119" d="M755.774,4729.7a.739.739,0,1,0,.739.738.739.739,0,0,0-.739-.738" transform="translate(-744.99 -4716.604)" fill="#fff"/>
  <path id="Path_120" data-name="Path 120" d="M761.962,4713.846v-.223a.469.469,0,0,0-.468-.468h-.542a.468.468,0,0,0-.468.468v.221h-.139a1.668,1.668,0,0,0-1.425.8l-3.016,4.278v-9.768a.864.864,0,0,0,.739-.853v-.493a.862.862,0,0,0-.862-.861H741.723a.369.369,0,0,0,0,.739h14.059a.122.122,0,0,1,.123.122v.493a.124.124,0,0,1-.123.124H738.5a.124.124,0,0,1-.123-.124v-.493a.122.122,0,0,1,.123-.122h4.259a.369.369,0,1,0,0-.739H738.5a.862.862,0,0,0-.862.861v.493a.864.864,0,0,0,.739.853v9.861a.863.863,0,0,0-.788.858v.417a.862.862,0,0,0,.862.862h0l1.382,0a2.216,2.216,0,0,0,4.372-.009l1.978,0a2.216,2.216,0,1,0,4.147-1.386h5.576a.614.614,0,0,0,.506-.265l3.113-4.417,0,0a.948.948,0,0,1,.816-.483h1.591a.123.123,0,0,1,.124.123v.739a.123.123,0,0,1-.124.123h-1.351a1.106,1.106,0,0,0-.923.5l-2.533,3.824a1.107,1.107,0,0,1-.921.5l-4.268.009a.369.369,0,1,0,0,.738h0l4.268-.009a1.842,1.842,0,0,0,1.536-.827l2.532-3.822a.37.37,0,0,1,.308-.166h.268v5.958h-.418a.369.369,0,1,0,0,.739h1.576a.369.369,0,0,0,0-.739h-.418v-5.958h.344a.863.863,0,0,0,.862-.862v-.739a.863.863,0,0,0-.837-.86m-6.8-4.679v9.848h-5.4a.371.371,0,0,0-.062.006,2.21,2.21,0,0,0-2.663-.006h-3.676l-.019,0a2.21,2.21,0,0,0-2.657,0h-1.577v-9.848Zm-8.977,11.233-1.988,0a2.181,2.181,0,0,0-.223-.651h2.434a2.221,2.221,0,0,0-.222.647m-7.74.017h0a.12.12,0,0,1-.087-.035.125.125,0,0,1-.036-.088v-.417a.123.123,0,0,1,.123-.123h1.611a2.193,2.193,0,0,0-.224.66Zm3.57,1.848a1.477,1.477,0,1,1,1.477-1.477,1.479,1.479,0,0,1-1.477,1.477m6.352,0a1.477,1.477,0,1,1,1.477-1.477,1.479,1.479,0,0,1-1.477,1.477" transform="translate(-737.587 -4706.951)" fill="#fff"/>
  <path id="Path_121" data-name="Path 121" d="M758.9,4715.345h3.693a.616.616,0,0,0,.616-.616v-2.117a.616.616,0,0,0-.616-.616H758.9a.616.616,0,0,0-.616.616v2.117a.616.616,0,0,0,.616.616m.123-2.61h3.447v1.871h-3.447Z" transform="translate(-746.369 -4709.092)" fill="#fff"/>
  <path id="Path_122" data-name="Path 122" d="M763.316,4720.465a.369.369,0,0,0-.37.369v2.314a.369.369,0,1,0,.739,0v-2.314a.369.369,0,0,0-.369-.369" transform="translate(-748.347 -4712.685)" fill="#fff"/>
  <path id="Path_123" data-name="Path 123" d="M758.612,4723.518a.37.37,0,0,0,.37-.37v-2.314a.37.37,0,0,0-.739,0v2.314a.37.37,0,0,0,.37.37" transform="translate(-746.351 -4712.685)" fill="#fff"/>
  <path id="Path_124" data-name="Path 124" d="M753.908,4720.469a.369.369,0,0,0,.369-.37v-6.45a.369.369,0,1,0-.739,0v6.45a.37.37,0,0,0,.37.37" transform="translate(-744.355 -4709.636)" fill="#fff"/>
  <path id="Path_125" data-name="Path 125" d="M749.2,4720.469a.369.369,0,0,0,.369-.37v-6.45a.369.369,0,1,0-.739,0v6.45a.37.37,0,0,0,.37.37" transform="translate(-742.359 -4709.636)" fill="#fff"/>
  <path id="Path_126" data-name="Path 126" d="M744.5,4720.469a.37.37,0,0,0,.37-.37v-6.45a.369.369,0,1,0-.739,0v6.45a.369.369,0,0,0,.369.37" transform="translate(-740.363 -4709.636)" fill="#fff"/>
</svg>
